<svg width="24" height="21" viewBox="0 0 24 21" fill="none" xmlns="http://www.w3.org/2000/svg">
<path fill-rule="evenodd" clip-rule="evenodd" d="M7.42226 16.8701C7.84426 16.8701 8.18726 17.162 8.18726 17.5212C8.18726 17.8804 7.84426 18.1715 7.42226 18.1715C7.00026 18.1715 6.65826 17.8804 6.65826 17.5212C6.65826 17.162 7.00026 16.8701 7.42226 16.8701Z" stroke="white" stroke-width="1.5" stroke-linecap="round" stroke-linejoin="round"/>
<path fill-rule="evenodd" clip-rule="evenodd" d="M18.6747 16.8701C19.0967 16.8701 19.4397 17.162 19.4397 17.5212C19.4397 17.8804 19.0967 18.1715 18.6747 18.1715C18.2527 18.1715 17.9097 17.8804 17.9097 17.5212C17.9097 17.162 18.2527 16.8701 18.6747 16.8701Z" stroke="white" stroke-width="1.5" stroke-linecap="round" stroke-linejoin="round"/>
<path d="M2.74988 2.76624L4.82988 3.07265L5.79288 12.8379C5.87088 13.6337 6.65188 14.2449 7.58988 14.2449H18.5019C19.3979 14.2449 20.1579 13.6848 20.2869 12.929L21.2359 7.34713C21.3529 6.65855 20.7259 6.04232 19.9089 6.04232H5.16388" stroke="white" stroke-width="1.5" stroke-linecap="round" stroke-linejoin="round"/>
<path d="M14.1254 9.18815H16.8984" stroke="white" stroke-width="1.5" stroke-linecap="round" stroke-linejoin="round"/>
</svg>
