<svg width="14" height="13" viewBox="0 0 14 13" fill="none" xmlns="http://www.w3.org/2000/svg">
<path fill-rule="evenodd" clip-rule="evenodd" d="M0.993287 2.69145C1.20417 2.40164 2.36678 1.34959 3.19526 1.38135C3.44311 1.39893 3.66222 1.52257 3.84024 1.66662H3.84092C4.249 1.99784 5.41982 3.24782 5.48555 3.51097C5.64782 4.15638 4.7187 4.52843 5.00284 5.17894C5.72725 6.64728 6.97544 7.68118 8.74879 8.28065C9.53345 8.51659 9.98261 7.74754 10.7618 7.88138C11.0795 7.9364 12.5892 8.90565 12.9884 9.24423V9.24423C13.1616 9.39112 13.3123 9.57317 13.3328 9.77848C13.3636 10.5016 12.0148 11.4776 11.7518 11.6024C11.1315 11.9705 10.3222 11.9637 9.33557 11.5837C6.58243 10.6349 2.1826 7.05903 1.01588 4.69234C0.569463 3.87962 0.539336 3.20472 0.993287 2.69145Z" stroke="white" stroke-linecap="round" stroke-linejoin="round"/>
<path d="M8.71027 1.51871C11.1783 1.74569 13.1269 3.3583 13.4043 5.40223" stroke="white" stroke-linecap="round" stroke-linejoin="round"/>
<path d="M8.71027 3.47537C9.89027 3.6659 10.8123 4.42968 11.0423 5.40719" stroke="white" stroke-linecap="round" stroke-linejoin="round"/>
</svg>
