<svg width="17" height="16" viewBox="0 0 17 16" fill="none" xmlns="http://www.w3.org/2000/svg">
<ellipse cx="8.57897" cy="5.00301" rx="4.77803" ry="3.28447" stroke="white" stroke-width="1.5" stroke-linecap="round" stroke-linejoin="round"/>
<path fill-rule="evenodd" clip-rule="evenodd" d="M1.00002 12.8556C0.998732 12.6247 1.07385 12.3966 1.2197 12.1886C1.67736 11.5594 2.96798 11.2259 4.03892 11.0749C4.81128 10.9616 5.59431 10.8859 6.38217 10.8484C7.84084 10.7603 9.30794 10.7603 10.7666 10.8484C11.5544 10.8863 12.3374 10.962 13.1099 11.0749C14.1808 11.2259 15.4714 11.5279 15.9291 12.1886C16.2224 12.6126 16.2224 13.1048 15.9291 13.5288C15.4714 14.1895 14.1808 14.4915 13.1099 14.6362C12.3384 14.7542 11.5551 14.832 10.7666 14.869C9.57937 14.9382 8.38659 14.9508 7.19681 14.9068C6.92221 14.9068 6.65677 14.9068 6.38217 14.869C5.59663 14.8325 4.81632 14.7547 4.04807 14.6362C2.96798 14.4915 1.68652 14.1895 1.2197 13.5288C1.0746 13.3184 0.999552 13.0884 1.00002 12.8556Z" stroke="white" stroke-width="1.5" stroke-linecap="round" stroke-linejoin="round"/>
</svg>
